<svg width="211" height="52" viewBox="0 0 211 52" fill="none" xmlns="http://www.w3.org/2000/svg">
<path d="M16.56 23.985C15.87 24.825 15.105 25.68 14.265 26.55C13.455 27.39 12.63 28.155 11.79 28.845C10.95 29.535 10.11 30.09 9.27 30.51C8.46 30.93 7.71 31.14 7.02 31.14C6.42 31.14 6 30.99 5.76 30.69C5.52 30.39 5.4 30.015 5.4 29.565C5.4 29.145 5.52 28.59 5.76 27.9C6.03 27.18 6.42 26.415 6.93 25.605C6.54 26.115 6.09 26.655 5.58 27.225C5.07 27.795 4.545 28.32 4.005 28.8C3.465 29.25 2.925 29.64 2.385 29.97C1.845 30.27 1.365 30.42 0.945 30.42C0.315 30.42 0 30.105 0 29.475C0 28.785 0.27 27.915 0.81 26.865C1.35 25.815 2.07 24.81 2.97 23.85C3.9 22.86 4.95 22.02 6.12 21.33C7.29 20.61 8.505 20.25 9.765 20.25C9.915 19.95 10.05 19.74 10.17 19.62C10.29 19.5 10.41 19.41 10.53 19.35L11.79 18.99L11.88 19.035C11.73 19.185 11.58 19.38 11.43 19.62C11.31 19.83 11.175 20.055 11.025 20.295C11.175 20.295 11.4 20.31 11.7 20.34C12 20.37 12.225 20.4 12.375 20.43C12.525 20.49 12.6 20.565 12.6 20.655C12.6 20.745 12.555 20.79 12.465 20.79C12.285 20.73 12.015 20.685 11.655 20.655C11.295 20.625 11.025 20.61 10.845 20.61C9.465 23.04 8.445 24.975 7.785 26.415C7.155 27.825 6.84 28.875 6.84 29.565C6.84 29.835 6.9 30.06 7.02 30.24C7.17 30.42 7.455 30.51 7.875 30.51C8.355 30.51 8.925 30.345 9.585 30.015C10.245 29.655 10.95 29.175 11.7 28.575C12.45 27.945 13.215 27.225 13.995 26.415C14.805 25.605 15.57 24.75 16.29 23.85C16.35 23.76 16.41 23.745 16.47 23.805C16.53 23.835 16.56 23.895 16.56 23.985ZM9.54 20.565C8.52 20.565 7.545 20.925 6.615 21.645C5.685 22.365 4.86 23.22 4.14 24.21C3.42 25.17 2.835 26.13 2.385 27.09C1.965 28.05 1.755 28.755 1.755 29.205C1.755 29.445 1.845 29.565 2.025 29.565C2.205 29.565 2.475 29.445 2.835 29.205C3.225 28.965 3.66 28.65 4.14 28.26C4.62 27.84 5.1 27.36 5.58 26.82C6.09 26.28 6.555 25.695 6.975 25.065C7.455 24.345 7.92 23.58 8.37 22.77C8.82 21.96 9.225 21.24 9.585 20.61L9.54 20.565Z" fill="black"/>
<path d="M28.042 24.345C27.502 25.095 26.872 25.86 26.152 26.64C25.462 27.39 24.712 28.065 23.902 28.665C23.122 29.265 22.312 29.76 21.472 30.15C20.662 30.54 19.867 30.735 19.087 30.735C18.727 30.735 18.397 30.675 18.097 30.555C17.797 30.465 17.647 30.21 17.647 29.79C17.647 29.37 17.797 28.845 18.097 28.215C18.397 27.555 18.742 26.865 19.132 26.145C19.552 25.425 19.972 24.69 20.392 23.94C20.842 23.19 21.202 22.5 21.472 21.87C21.532 21.72 21.532 21.6 21.472 21.51C21.442 21.39 21.352 21.375 21.202 21.465C20.872 21.675 20.482 21.96 20.032 22.32C19.582 22.68 19.117 23.07 18.637 23.49C18.187 23.88 17.737 24.285 17.287 24.705C16.867 25.125 16.522 25.5 16.252 25.83C15.772 26.58 15.352 27.27 14.992 27.9C14.662 28.53 14.242 29.235 13.732 30.015C13.612 30.195 13.522 30.285 13.462 30.285C13.312 30.285 13.177 30.12 13.057 29.79C12.967 29.46 12.922 29.25 12.922 29.16C12.922 28.89 13.102 28.53 13.462 28.08C13.852 27.6 14.272 27.075 14.722 26.505C15.202 25.545 15.697 24.54 16.207 23.49C16.717 22.41 17.152 21.45 17.512 20.61C17.602 20.46 17.737 20.385 17.917 20.385C18.097 20.385 18.262 20.46 18.412 20.61C18.562 20.76 18.637 20.925 18.637 21.105C18.637 21.225 18.412 21.645 17.962 22.365C17.542 23.055 17.122 23.865 16.702 24.795C17.272 24.285 17.887 23.745 18.547 23.175C19.237 22.605 19.882 22.08 20.482 21.6C21.112 21.12 21.652 20.73 22.102 20.43C22.582 20.1 22.912 19.935 23.092 19.935C23.212 19.935 23.317 20.01 23.407 20.16C23.527 20.28 23.587 20.4 23.587 20.52C23.587 20.64 23.512 20.82 23.362 21.06C23.032 21.54 22.627 22.155 22.147 22.905C21.667 23.655 21.202 24.435 20.752 25.245C20.332 26.025 19.972 26.775 19.672 27.495C19.372 28.215 19.222 28.785 19.222 29.205C19.222 29.565 19.297 29.82 19.447 29.97C19.597 30.09 19.837 30.15 20.167 30.15C20.677 30.15 21.277 29.955 21.967 29.565C22.657 29.175 23.362 28.695 24.082 28.125C24.832 27.525 25.537 26.865 26.197 26.145C26.857 25.425 27.397 24.735 27.817 24.075C27.877 23.985 27.967 23.97 28.087 24.03C28.207 24.06 28.192 24.165 28.042 24.345Z" fill="black"/>
<path d="M34.0692 14.22C34.0692 14.58 33.9042 14.94 33.5742 15.3C33.2742 15.66 32.9292 15.84 32.5392 15.84C32.1792 15.84 31.9992 15.66 31.9992 15.3C31.9992 14.91 32.1342 14.535 32.4042 14.175C32.7042 13.815 33.0642 13.635 33.4842 13.635C33.8742 13.635 34.0692 13.83 34.0692 14.22ZM36.0942 24.255C35.3742 25.185 34.5492 26.07 33.6192 26.91C32.6892 27.75 31.8342 28.425 31.0542 28.935C30.4542 29.325 29.8392 29.625 29.2092 29.835C28.5792 30.045 28.0092 30.15 27.4992 30.15C27.3192 30.15 27.1092 30.135 26.8692 30.105C26.6292 30.075 26.4042 30 26.1942 29.88C26.0142 29.76 25.8492 29.61 25.6992 29.43C25.5792 29.22 25.5192 28.95 25.5192 28.62C25.5192 28.23 25.6692 27.705 25.9692 27.045C26.2692 26.355 26.6142 25.65 27.0042 24.93C27.4242 24.21 27.8292 23.52 28.2192 22.86C28.6392 22.2 28.9692 21.705 29.2092 21.375C29.3592 21.135 29.6142 20.94 29.9742 20.79C30.3642 20.61 30.6192 20.52 30.7392 20.52C30.8892 20.52 30.9642 20.565 30.9642 20.655C30.9642 20.715 30.9342 20.805 30.8742 20.925C30.8442 21.045 30.7992 21.135 30.7392 21.195C30.3492 21.795 29.9442 22.455 29.5242 23.175C29.1342 23.895 28.7742 24.6 28.4442 25.29C28.1142 25.95 27.8442 26.565 27.6342 27.135C27.4542 27.705 27.3642 28.155 27.3642 28.485C27.3642 28.845 27.4542 29.115 27.6342 29.295C27.8442 29.445 28.1142 29.52 28.4442 29.52C29.0442 29.52 29.7042 29.325 30.4242 28.935C31.1442 28.515 31.8492 28.02 32.5392 27.45C33.2592 26.88 33.9192 26.28 34.5192 25.65C35.1192 25.02 35.5842 24.48 35.9142 24.03C36.0642 23.88 36.1392 23.85 36.1392 23.94C36.1692 24 36.1542 24.105 36.0942 24.255Z" fill="black"/>
<path d="M50.8029 26.28C50.3829 26.76 49.8729 27.3 49.2729 27.9C48.7029 28.5 48.0879 29.07 47.4279 29.61C46.7679 30.15 46.0779 30.6 45.3579 30.96C44.6679 31.32 43.9929 31.5 43.3329 31.5C42.7329 31.5 42.3129 31.38 42.0729 31.14C41.8329 30.9 41.7129 30.525 41.7129 30.015C41.7129 29.685 41.8779 29.145 42.2079 28.395C42.5679 27.645 42.9579 26.865 43.3779 26.055C43.7979 25.245 44.1729 24.48 44.5029 23.76C44.8629 23.01 45.0429 22.485 45.0429 22.185C45.0429 22.005 44.9679 21.915 44.8179 21.915C44.4279 22.125 43.9779 22.44 43.4679 22.86C42.9879 23.25 42.5079 23.685 42.0279 24.165C41.5479 24.645 41.0979 25.11 40.6779 25.56C40.2879 26.01 39.9879 26.385 39.7779 26.685C39.5679 26.985 39.3579 27.345 39.1479 27.765C38.9379 28.185 38.7279 28.59 38.5179 28.98C38.3379 29.37 38.1429 29.7 37.9329 29.97C37.7529 30.24 37.5879 30.375 37.4379 30.375C37.2879 30.375 37.1529 30.3 37.0329 30.15C36.9129 30 36.8529 29.85 36.8529 29.7C36.8529 29.61 36.8979 29.46 36.9879 29.25C37.0779 29.01 37.2429 28.725 37.4829 28.395C37.8729 27.855 38.2179 27.285 38.5179 26.685C38.8479 26.085 39.1179 25.53 39.3279 25.02C39.5679 24.51 39.7479 24.075 39.8679 23.715C39.9879 23.355 40.0479 23.145 40.0479 23.085C40.0479 22.845 39.9879 22.725 39.8679 22.725C39.6879 22.725 39.3729 22.92 38.9229 23.31C38.5029 23.67 38.0379 24.12 37.5279 24.66C37.0179 25.2 36.5079 25.77 35.9979 26.37C35.5179 26.97 35.1129 27.51 34.7829 27.99C34.3629 28.62 34.0029 29.175 33.7029 29.655C33.4029 30.135 33.1779 30.375 33.0279 30.375C32.7879 30.375 32.6379 30.27 32.5779 30.06C32.5479 29.85 32.5329 29.64 32.5329 29.43C32.5329 29.19 32.5929 28.995 32.7129 28.845C33.5229 27.555 34.3179 26.235 35.0979 24.885C35.8779 23.535 36.6579 22.2 37.4379 20.88C37.5879 20.61 37.7529 20.475 37.9329 20.475C38.0829 20.475 38.2179 20.565 38.3379 20.745C38.4579 20.895 38.5179 21.045 38.5179 21.195C38.3079 21.795 37.9479 22.53 37.4379 23.4C36.9279 24.27 36.4779 25.065 36.0879 25.785C37.2879 24.405 38.2929 23.37 39.1029 22.68C39.9129 21.96 40.5729 21.6 41.0829 21.6C41.4129 21.6 41.5779 21.825 41.5779 22.275C41.5779 22.575 41.4429 23.04 41.1729 23.67C40.9029 24.27 40.6629 24.765 40.4529 25.155C40.3929 25.275 40.3779 25.335 40.4079 25.335C40.4679 25.305 40.5279 25.26 40.5879 25.2C40.9479 24.78 41.3529 24.345 41.8029 23.895C42.2829 23.415 42.7779 22.965 43.2879 22.545C43.8279 22.125 44.3529 21.735 44.8629 21.375C45.4029 21.015 45.8979 20.73 46.3479 20.52C46.7979 20.52 47.0229 20.73 47.0229 21.15C47.0229 21.24 47.0079 21.33 46.9779 21.42C46.9479 21.51 46.9029 21.615 46.8429 21.735C46.6929 22.065 46.4079 22.605 45.9879 23.355C45.5979 24.105 45.1929 24.915 44.7729 25.785C44.3529 26.625 43.9779 27.45 43.6479 28.26C43.3479 29.04 43.1979 29.64 43.1979 30.06C43.1979 30.66 43.4829 30.96 44.0529 30.96C44.5929 30.96 45.1629 30.78 45.7629 30.42C46.3629 30.06 46.9629 29.625 47.5629 29.115C48.1629 28.605 48.7179 28.08 49.2279 27.54C49.7379 26.97 50.1729 26.475 50.5329 26.055C50.6529 25.875 50.7729 25.8 50.8929 25.83C51.0129 25.86 50.9829 26.01 50.8029 26.28Z" fill="black"/>
<path d="M65.1108 23.985C64.4208 24.825 63.6558 25.68 62.8158 26.55C62.0058 27.39 61.1808 28.155 60.3408 28.845C59.5008 29.535 58.6608 30.09 57.8208 30.51C57.0108 30.93 56.2608 31.14 55.5708 31.14C54.9708 31.14 54.5508 30.99 54.3108 30.69C54.0708 30.39 53.9508 30.015 53.9508 29.565C53.9508 29.145 54.0708 28.59 54.3108 27.9C54.5808 27.18 54.9708 26.415 55.4808 25.605C55.0908 26.115 54.6408 26.655 54.1308 27.225C53.6208 27.795 53.0958 28.32 52.5558 28.8C52.0158 29.25 51.4758 29.64 50.9358 29.97C50.3958 30.27 49.9158 30.42 49.4958 30.42C48.8658 30.42 48.5508 30.105 48.5508 29.475C48.5508 28.785 48.8208 27.915 49.3608 26.865C49.9008 25.815 50.6208 24.81 51.5208 23.85C52.4508 22.86 53.5008 22.02 54.6708 21.33C55.8408 20.61 57.0558 20.25 58.3158 20.25C58.4658 19.95 58.6008 19.74 58.7208 19.62C58.8408 19.5 58.9608 19.41 59.0808 19.35L60.3408 18.99L60.4308 19.035C60.2808 19.185 60.1308 19.38 59.9808 19.62C59.8608 19.83 59.7258 20.055 59.5758 20.295C59.7258 20.295 59.9508 20.31 60.2508 20.34C60.5508 20.37 60.7758 20.4 60.9258 20.43C61.0758 20.49 61.1508 20.565 61.1508 20.655C61.1508 20.745 61.1058 20.79 61.0158 20.79C60.8358 20.73 60.5658 20.685 60.2058 20.655C59.8458 20.625 59.5758 20.61 59.3958 20.61C58.0158 23.04 56.9958 24.975 56.3358 26.415C55.7058 27.825 55.3908 28.875 55.3908 29.565C55.3908 29.835 55.4508 30.06 55.5708 30.24C55.7208 30.42 56.0058 30.51 56.4258 30.51C56.9058 30.51 57.4758 30.345 58.1358 30.015C58.7958 29.655 59.5008 29.175 60.2508 28.575C61.0008 27.945 61.7658 27.225 62.5458 26.415C63.3558 25.605 64.1208 24.75 64.8408 23.85C64.9008 23.76 64.9608 23.745 65.0208 23.805C65.0808 23.835 65.1108 23.895 65.1108 23.985ZM58.0908 20.565C57.0708 20.565 56.0958 20.925 55.1658 21.645C54.2358 22.365 53.4108 23.22 52.6908 24.21C51.9708 25.17 51.3858 26.13 50.9358 27.09C50.5158 28.05 50.3058 28.755 50.3058 29.205C50.3058 29.445 50.3958 29.565 50.5758 29.565C50.7558 29.565 51.0258 29.445 51.3858 29.205C51.7758 28.965 52.2108 28.65 52.6908 28.26C53.1708 27.84 53.6508 27.36 54.1308 26.82C54.6408 26.28 55.1058 25.695 55.5258 25.065C56.0058 24.345 56.4708 23.58 56.9208 22.77C57.3708 21.96 57.7758 21.24 58.1358 20.61L58.0908 20.565Z" fill="black"/>
<path d="M83.7928 0.809999C83.7928 1.23 83.6278 1.845 83.2978 2.655C82.9678 3.465 82.4878 4.41 81.8578 5.49C81.2578 6.54 80.5078 7.68 79.6078 8.91C78.7378 10.11 77.7328 11.31 76.5928 12.51C75.4828 13.71 74.2528 14.865 72.9028 15.975C71.5528 17.055 70.1128 18.015 68.5828 18.855C68.3128 19.335 67.9378 19.98 67.4578 20.79C66.9778 21.6 66.4978 22.455 66.0178 23.355C65.5678 24.255 65.1628 25.14 64.8028 26.01C64.4728 26.88 64.3078 27.615 64.3078 28.215C64.3078 29.175 64.7428 29.655 65.6128 29.655C66.3628 29.655 67.1428 29.445 67.9528 29.025C68.7628 28.605 69.5278 28.095 70.2478 27.495C70.9978 26.895 71.6878 26.265 72.3178 25.605C72.9778 24.915 73.5328 24.3 73.9828 23.76C74.1928 23.55 74.3128 23.505 74.3428 23.625C74.3728 23.715 74.3278 23.82 74.2078 23.94C73.6678 24.6 73.0228 25.305 72.2728 26.055C71.5528 26.805 70.7728 27.495 69.9328 28.125C69.1228 28.755 68.2678 29.28 67.3678 29.7C66.4678 30.12 65.5678 30.33 64.6678 30.33C63.8878 30.33 63.3178 30.15 62.9578 29.79C62.6278 29.4 62.4628 28.935 62.4628 28.395C62.4628 27.855 62.6878 27.09 63.1378 26.1C63.6178 25.08 64.1728 24.015 64.8028 22.905C65.4328 21.795 66.0628 20.745 66.6928 19.755C67.3228 18.765 67.7878 18.015 68.0878 17.505C68.5978 16.635 69.1228 15.735 69.6628 14.805C70.2328 13.845 70.7878 12.915 71.3278 12.015C71.8678 11.115 72.3778 10.26 72.8578 9.45C73.3678 8.61 73.8328 7.875 74.2528 7.245C74.7628 6.465 75.2878 5.73 75.8278 5.04C76.3678 4.35 77.0578 3.66 77.8978 2.97C79.0378 2.01 80.0878 1.275 81.0478 0.765C82.0078 0.255 82.6528 0 82.9828 0C83.2228 0 83.4178 0.0750003 83.5678 0.225001C83.7178 0.345001 83.7928 0.54 83.7928 0.809999ZM81.7678 1.98C81.7678 1.5 81.5728 1.26 81.1828 1.26C81.0328 1.26 80.8678 1.305 80.6878 1.395C80.5078 1.485 80.2678 1.68 79.9678 1.98C79.6978 2.25 79.3528 2.64 78.9328 3.15C78.5428 3.66 78.0328 4.32 77.4028 5.13C77.1628 5.46 76.8178 5.94 76.3678 6.57C75.9478 7.2 75.3928 8.04 74.7028 9.09C74.0428 10.11 73.2328 11.385 72.2728 12.915C71.3428 14.415 70.2328 16.2 68.9428 18.27C70.7428 17.25 72.4228 16.02 73.9828 14.58C75.5728 13.11 76.9378 11.61 78.0778 10.08C79.2178 8.55 80.1178 7.065 80.7778 5.625C81.4378 4.185 81.7678 2.97 81.7678 1.98Z" fill="black"/>
<path d="M90.5934 20.97C90.4134 21.18 90.2184 21.435 90.0084 21.735C89.8284 22.035 89.7084 22.26 89.6484 22.41C89.6184 22.5 89.5584 22.545 89.4684 22.545C89.4384 22.545 89.3934 22.5 89.3334 22.41C89.2734 22.32 89.1834 22.23 89.0634 22.14C88.9734 22.02 88.8384 21.915 88.6584 21.825C88.4784 21.735 88.2234 21.69 87.8934 21.69C87.5034 21.69 87.0684 21.825 86.5884 22.095C86.1084 22.365 85.6884 22.665 85.3284 22.995C84.7584 23.475 84.2484 24 83.7984 24.57C83.3784 25.14 82.9734 25.74 82.5834 26.37C82.1934 26.97 81.8184 27.6 81.4584 28.26C81.0984 28.89 80.7084 29.535 80.2884 30.195C80.2584 30.285 80.1684 30.33 80.0184 30.33C79.9584 30.33 79.8234 30.24 79.6134 30.06C79.4334 29.88 79.3434 29.745 79.3434 29.655C79.3434 29.475 79.4484 29.205 79.6584 28.845C80.1384 28.005 80.6184 27.165 81.0984 26.325C81.6084 25.455 82.0734 24.645 82.4934 23.895C82.9434 23.145 83.3334 22.5 83.6634 21.96C83.9934 21.39 84.2184 20.97 84.3384 20.7C84.4884 20.43 84.5934 20.295 84.6534 20.295C84.7134 20.295 84.8634 20.37 85.1034 20.52C85.3434 20.67 85.4634 20.88 85.4634 21.15C85.4634 21.24 85.4034 21.39 85.2834 21.6C85.1934 21.81 85.0734 22.035 84.9234 22.275C84.8034 22.485 84.6834 22.695 84.5634 22.905C84.4434 23.115 84.3534 23.265 84.2934 23.355C84.2034 23.505 84.1884 23.58 84.2484 23.58C84.3084 23.58 84.3834 23.535 84.4734 23.445C84.7734 23.145 85.1334 22.815 85.5534 22.455C86.0034 22.095 86.4684 21.765 86.9484 21.465C87.4284 21.135 87.8934 20.865 88.3434 20.655C88.8234 20.445 89.2434 20.34 89.6034 20.34C89.8734 20.34 90.0984 20.415 90.2784 20.565C90.4884 20.685 90.5934 20.82 90.5934 20.97Z" fill="black"/>
<path d="M100.258 24.795C99.7479 25.425 99.1329 26.085 98.4129 26.775C97.7229 27.435 96.9579 28.05 96.1179 28.62C95.3079 29.16 94.4529 29.61 93.5529 29.97C92.6829 30.3 91.8129 30.465 90.9429 30.465C89.5329 30.465 88.8279 29.835 88.8279 28.575C88.8279 27.735 89.0379 26.835 89.4579 25.875C89.9079 24.885 90.4779 23.985 91.1679 23.175C91.8579 22.335 92.6079 21.645 93.4179 21.105C94.2579 20.535 95.0529 20.25 95.8029 20.25C96.2229 20.25 96.5079 20.325 96.6579 20.475C96.8379 20.625 96.9279 20.82 96.9279 21.06C96.9279 21.42 96.8079 21.81 96.5679 22.23C96.3579 22.65 96.0279 23.055 95.5779 23.445C95.1279 23.805 94.5579 24.12 93.8679 24.39C93.1779 24.63 92.3529 24.75 91.3929 24.75C91.2429 25.02 91.0779 25.455 90.8979 26.055C90.7179 26.625 90.6279 27.21 90.6279 27.81C90.6279 29.04 91.1829 29.655 92.2929 29.655C92.9829 29.655 93.6879 29.49 94.4079 29.16C95.1579 28.83 95.8779 28.425 96.5679 27.945C97.2579 27.435 97.8879 26.895 98.4579 26.325C99.0579 25.725 99.5529 25.17 99.9429 24.66C100.003 24.6 100.063 24.585 100.123 24.615C100.213 24.645 100.258 24.705 100.258 24.795ZM95.5329 21.285C95.5329 20.895 95.3379 20.7 94.9479 20.7C94.6479 20.7 94.3329 20.82 94.0029 21.06C93.7029 21.27 93.4029 21.555 93.1029 21.915C92.8029 22.275 92.5179 22.665 92.2479 23.085C91.9779 23.505 91.7529 23.91 91.5729 24.3C91.6329 24.33 91.7379 24.36 91.8879 24.39C92.0379 24.39 92.1579 24.39 92.2479 24.39C93.1179 24.39 93.8829 24.09 94.5429 23.49C95.2029 22.86 95.5329 22.125 95.5329 21.285Z" fill="black"/>
<path d="M109.891 24.12C109.441 24.69 108.931 25.275 108.361 25.875C107.791 26.445 107.206 27 106.606 27.54C106.006 28.05 105.391 28.515 104.761 28.935C104.131 29.355 103.531 29.685 102.961 29.925C102.511 30.105 102.091 30.225 101.701 30.285C101.341 30.375 100.996 30.42 100.666 30.42C99.0164 30.42 98.1914 29.73 98.1914 28.35C98.1914 27.81 98.3114 27.24 98.5514 26.64C99.1214 25.23 99.9164 23.985 100.936 22.905C101.986 21.795 103.111 20.985 104.311 20.475C104.671 20.325 104.971 20.25 105.211 20.25C106.321 20.25 106.876 20.685 106.876 21.555C106.876 22.005 106.771 22.35 106.561 22.59C106.381 22.77 106.081 23.025 105.661 23.355L105.526 23.31C105.616 23.07 105.661 22.815 105.661 22.545C105.661 22.245 105.541 21.96 105.301 21.69C105.091 21.42 104.746 21.285 104.266 21.285C103.696 21.285 103.141 21.48 102.601 21.87C102.091 22.23 101.626 22.725 101.206 23.355C100.816 23.955 100.501 24.66 100.261 25.47C100.021 26.25 99.9014 27.06 99.9014 27.9C99.9014 28.53 100.066 29.01 100.396 29.34C100.756 29.64 101.191 29.79 101.701 29.79C102.541 29.79 103.666 29.31 105.076 28.35C106.516 27.36 108.046 25.875 109.666 23.895C109.816 23.745 109.921 23.715 109.981 23.805C110.071 23.865 110.041 23.97 109.891 24.12Z" fill="black"/>
<path d="M121.549 24.75C121.039 25.47 120.439 26.235 119.749 27.045C119.059 27.825 118.339 28.545 117.589 29.205C116.839 29.865 116.074 30.405 115.294 30.825C114.514 31.275 113.779 31.5 113.089 31.5C112.579 31.5 112.174 31.365 111.874 31.095C111.604 30.825 111.469 30.405 111.469 29.835C111.469 29.565 111.499 29.265 111.559 28.935C111.649 28.575 111.784 28.185 111.964 27.765C111.784 27.975 111.574 28.23 111.334 28.53C111.124 28.8 110.869 29.07 110.569 29.34C110.299 29.58 109.984 29.79 109.624 29.97C109.294 30.12 108.919 30.195 108.499 30.195C108.169 30.195 107.899 30.105 107.689 29.925C107.479 29.715 107.374 29.4 107.374 28.98C107.374 28.74 107.419 28.44 107.509 28.08C107.629 27.72 107.824 27.24 108.094 26.64C108.394 26.01 108.784 25.245 109.264 24.345C109.774 23.415 110.419 22.275 111.199 20.925C111.349 20.625 111.484 20.475 111.604 20.475C111.814 20.475 112.024 20.61 112.234 20.88C112.474 21.12 112.594 21.285 112.594 21.375C112.594 21.465 112.504 21.645 112.324 21.915C111.844 22.635 111.394 23.355 110.974 24.075C110.554 24.795 110.179 25.47 109.849 26.1C109.549 26.73 109.294 27.3 109.084 27.81C108.904 28.29 108.814 28.665 108.814 28.935C108.814 29.385 108.979 29.61 109.309 29.61C109.609 29.61 110.014 29.385 110.524 28.935C111.064 28.455 111.694 27.66 112.414 26.55C112.684 26.07 112.954 25.575 113.224 25.065C113.524 24.525 113.809 24.015 114.079 23.535C114.349 23.055 114.604 22.62 114.844 22.23C115.084 21.81 115.264 21.495 115.384 21.285C115.534 21.075 115.654 20.97 115.744 20.97C115.864 20.97 115.999 21.105 116.149 21.375C116.299 21.615 116.374 21.915 116.374 22.275C116.374 22.515 116.314 22.74 116.194 22.95C115.834 23.49 115.444 24.03 115.024 24.57C114.634 25.08 114.259 25.62 113.899 26.19C113.569 26.76 113.284 27.36 113.044 27.99C112.804 28.62 112.684 29.31 112.684 30.06C112.684 30.72 112.999 31.05 113.629 31.05C114.049 31.05 114.544 30.885 115.114 30.555C115.714 30.255 116.359 29.82 117.049 29.25C117.739 28.68 118.444 27.99 119.164 27.18C119.914 26.37 120.619 25.485 121.279 24.525C121.459 24.465 121.549 24.54 121.549 24.75Z" fill="black"/>
<path d="M125.826 21.915C125.736 22.065 125.661 22.08 125.601 21.96C125.421 21.57 125.046 21.375 124.476 21.375C124.056 21.375 123.636 21.495 123.216 21.735C122.796 21.975 122.586 22.335 122.586 22.815C122.586 23.055 122.661 23.295 122.811 23.535C122.961 23.775 123.171 24.09 123.441 24.48C123.681 24.84 123.906 25.2 124.116 25.56C124.326 25.92 124.431 26.295 124.431 26.685C124.431 27.465 124.251 28.11 123.891 28.62C123.531 29.1 123.096 29.49 122.586 29.79C122.106 30.09 121.611 30.285 121.101 30.375C120.591 30.495 120.186 30.555 119.886 30.555C118.056 30.555 117.051 29.94 116.871 28.71C117.021 28.62 117.186 28.515 117.366 28.395C117.576 28.245 117.726 28.11 117.816 27.99C117.876 27.99 117.921 28.05 117.951 28.17C118.101 28.71 118.386 29.175 118.806 29.565C119.226 29.955 119.721 30.15 120.291 30.15C120.531 30.15 120.816 30.135 121.146 30.105C121.476 30.045 121.776 29.94 122.046 29.79C122.346 29.61 122.601 29.37 122.811 29.07C123.021 28.77 123.126 28.365 123.126 27.855C123.126 27.465 123.051 27.105 122.901 26.775C122.751 26.445 122.586 26.145 122.406 25.875C122.226 25.575 122.046 25.275 121.866 24.975C121.686 24.675 121.596 24.345 121.596 23.985C121.596 23.625 121.716 23.235 121.956 22.815C122.226 22.395 122.556 22.02 122.946 21.69C123.336 21.33 123.756 21.03 124.206 20.79C124.686 20.55 125.151 20.43 125.601 20.43C126.081 20.43 126.321 20.58 126.321 20.88C126.231 21.03 126.141 21.21 126.051 21.42C125.961 21.6 125.886 21.765 125.826 21.915Z" fill="black"/>
<path d="M138.684 24.12C138.234 24.69 137.724 25.275 137.154 25.875C136.584 26.445 135.999 27 135.399 27.54C134.799 28.05 134.184 28.515 133.554 28.935C132.924 29.355 132.324 29.685 131.754 29.925C131.304 30.105 130.884 30.225 130.494 30.285C130.134 30.375 129.789 30.42 129.459 30.42C127.809 30.42 126.984 29.73 126.984 28.35C126.984 27.81 127.104 27.24 127.344 26.64C127.914 25.23 128.709 23.985 129.729 22.905C130.779 21.795 131.904 20.985 133.104 20.475C133.464 20.325 133.764 20.25 134.004 20.25C135.114 20.25 135.669 20.685 135.669 21.555C135.669 22.005 135.564 22.35 135.354 22.59C135.174 22.77 134.874 23.025 134.454 23.355L134.319 23.31C134.409 23.07 134.454 22.815 134.454 22.545C134.454 22.245 134.334 21.96 134.094 21.69C133.884 21.42 133.539 21.285 133.059 21.285C132.489 21.285 131.934 21.48 131.394 21.87C130.884 22.23 130.419 22.725 129.999 23.355C129.609 23.955 129.294 24.66 129.054 25.47C128.814 26.25 128.694 27.06 128.694 27.9C128.694 28.53 128.859 29.01 129.189 29.34C129.549 29.64 129.984 29.79 130.494 29.79C131.334 29.79 132.459 29.31 133.869 28.35C135.309 27.36 136.839 25.875 138.459 23.895C138.609 23.745 138.714 23.715 138.774 23.805C138.864 23.865 138.834 23.97 138.684 24.12Z" fill="black"/>
<path d="M150.342 24.75C149.832 25.47 149.232 26.235 148.542 27.045C147.852 27.825 147.132 28.545 146.382 29.205C145.632 29.865 144.867 30.405 144.087 30.825C143.307 31.275 142.572 31.5 141.882 31.5C141.372 31.5 140.967 31.365 140.667 31.095C140.397 30.825 140.262 30.405 140.262 29.835C140.262 29.565 140.292 29.265 140.352 28.935C140.442 28.575 140.577 28.185 140.757 27.765C140.577 27.975 140.367 28.23 140.127 28.53C139.917 28.8 139.662 29.07 139.362 29.34C139.092 29.58 138.777 29.79 138.417 29.97C138.087 30.12 137.712 30.195 137.292 30.195C136.962 30.195 136.692 30.105 136.482 29.925C136.272 29.715 136.167 29.4 136.167 28.98C136.167 28.74 136.212 28.44 136.302 28.08C136.422 27.72 136.617 27.24 136.887 26.64C137.187 26.01 137.577 25.245 138.057 24.345C138.567 23.415 139.212 22.275 139.992 20.925C140.142 20.625 140.277 20.475 140.397 20.475C140.607 20.475 140.817 20.61 141.027 20.88C141.267 21.12 141.387 21.285 141.387 21.375C141.387 21.465 141.297 21.645 141.117 21.915C140.637 22.635 140.187 23.355 139.767 24.075C139.347 24.795 138.972 25.47 138.642 26.1C138.342 26.73 138.087 27.3 137.877 27.81C137.697 28.29 137.607 28.665 137.607 28.935C137.607 29.385 137.772 29.61 138.102 29.61C138.402 29.61 138.807 29.385 139.317 28.935C139.857 28.455 140.487 27.66 141.207 26.55C141.477 26.07 141.747 25.575 142.017 25.065C142.317 24.525 142.602 24.015 142.872 23.535C143.142 23.055 143.397 22.62 143.637 22.23C143.877 21.81 144.057 21.495 144.177 21.285C144.327 21.075 144.447 20.97 144.537 20.97C144.657 20.97 144.792 21.105 144.942 21.375C145.092 21.615 145.167 21.915 145.167 22.275C145.167 22.515 145.107 22.74 144.987 22.95C144.627 23.49 144.237 24.03 143.817 24.57C143.427 25.08 143.052 25.62 142.692 26.19C142.362 26.76 142.077 27.36 141.837 27.99C141.597 28.62 141.477 29.31 141.477 30.06C141.477 30.72 141.792 31.05 142.422 31.05C142.842 31.05 143.337 30.885 143.907 30.555C144.507 30.255 145.152 29.82 145.842 29.25C146.532 28.68 147.237 27.99 147.957 27.18C148.707 26.37 149.412 25.485 150.072 24.525C150.252 24.465 150.342 24.54 150.342 24.75Z" fill="black"/>
<path d="M159.479 24.795C158.969 25.425 158.354 26.085 157.634 26.775C156.944 27.435 156.179 28.05 155.339 28.62C154.529 29.16 153.674 29.61 152.774 29.97C151.904 30.3 151.034 30.465 150.164 30.465C148.754 30.465 148.049 29.835 148.049 28.575C148.049 27.735 148.259 26.835 148.679 25.875C149.129 24.885 149.699 23.985 150.389 23.175C151.079 22.335 151.829 21.645 152.639 21.105C153.479 20.535 154.274 20.25 155.024 20.25C155.444 20.25 155.729 20.325 155.879 20.475C156.059 20.625 156.149 20.82 156.149 21.06C156.149 21.42 156.029 21.81 155.789 22.23C155.579 22.65 155.249 23.055 154.799 23.445C154.349 23.805 153.779 24.12 153.089 24.39C152.399 24.63 151.574 24.75 150.614 24.75C150.464 25.02 150.299 25.455 150.119 26.055C149.939 26.625 149.849 27.21 149.849 27.81C149.849 29.04 150.404 29.655 151.514 29.655C152.204 29.655 152.909 29.49 153.629 29.16C154.379 28.83 155.099 28.425 155.789 27.945C156.479 27.435 157.109 26.895 157.679 26.325C158.279 25.725 158.774 25.17 159.164 24.66C159.224 24.6 159.284 24.585 159.344 24.615C159.434 24.645 159.479 24.705 159.479 24.795ZM154.754 21.285C154.754 20.895 154.559 20.7 154.169 20.7C153.869 20.7 153.554 20.82 153.224 21.06C152.924 21.27 152.624 21.555 152.324 21.915C152.024 22.275 151.739 22.665 151.469 23.085C151.199 23.505 150.974 23.91 150.794 24.3C150.854 24.33 150.959 24.36 151.109 24.39C151.259 24.39 151.379 24.39 151.469 24.39C152.339 24.39 153.104 24.09 153.764 23.49C154.424 22.86 154.754 22.125 154.754 21.285Z" fill="black"/>
<path fill-rule="evenodd" clip-rule="evenodd" d="M202.465 18.9874C204.292 20.9573 205.633 23.5011 206.006 26.141C206.927 32.671 210.645 33.9592 210.515 37.6915C210.238 45.654 204.291 51.5786 194.906 51.5786C185.52 51.5786 177.91 43.4318 177.91 33.3866C177.91 31.4214 178.2 29.5294 178.74 27.7566C176.818 26.4413 175.131 23.3585 174.575 16.5646C174.104 10.8031 176.617 8.95872 180.397 10.887C183.252 12.3437 184.43 15.159 185.665 18.1186C187.55 16.8098 189.69 15.8882 191.989 15.4623C192.031 15.1965 192.076 14.9261 192.124 14.6492C193.124 8.9558 196.021 7.80715 199.191 10.6301C201.593 12.7684 202.016 15.8007 202.465 18.9874ZM205.896 29.1616C204.189 28.9827 203.675 26.6408 205.14 25.7109C204.864 24.2936 204.298 22.9291 203.546 21.7012C201.785 18.8219 198.449 15.9767 194.906 15.9767C185.647 15.9767 178.691 24.1117 178.691 33.3866C178.691 42.6609 185.647 50.796 194.906 50.796C198.269 50.796 201.597 49.9829 204.277 48.108C202.705 48.3508 200.951 48.0763 199.388 47.3201C199.061 47.1617 199.301 46.666 199.627 46.8238C200.906 47.4427 202.262 47.6961 203.501 47.6345C203.793 46.7511 203.849 45.7866 203.852 44.8509C202.172 44.8145 200.281 43.836 200.504 42.0256C200.751 40.0199 203.25 42.4509 204.374 42.2949C205.499 42.1394 207.072 40.0316 207.628 41.4096C208.184 42.7871 206.177 44.6344 204.401 44.8274C204.4 45.7526 204.347 46.6918 204.093 47.5794C204.564 47.5149 204.996 47.4022 205.37 47.2509C206.054 46.6519 206.682 45.9708 207.241 45.2011C208.845 42.9954 209.639 40.3771 209.734 37.6639C209.831 34.8844 207.287 33.4177 205.896 29.1616ZM201.552 18.0875C201.174 15.5109 200.647 12.9731 198.672 11.2143C195.15 8.07871 193.513 11.2642 192.895 14.7847C192.864 14.9583 192.832 15.1419 192.801 15.3332C193.491 15.2423 194.193 15.1942 194.906 15.1942C197.211 15.1942 199.586 16.317 201.552 18.0875ZM181.368 22.3888C180.667 20.3496 180.108 18.2289 178.857 16.7335C178.44 16.2343 176.645 16.3774 177.551 17.258C179.401 19.0555 180.235 20.8013 180.885 23.1033C180.119 24.2983 179.482 25.596 178.996 26.9728C176.261 24.8709 175.591 19.4016 175.355 16.5006C175.063 12.9315 175.848 9.44504 180.042 11.5839C182.753 12.9673 183.892 15.8706 185.018 18.5908C183.631 19.655 182.4 20.9362 181.368 22.3888ZM187.565 28.677C188.56 28.677 189.366 29.513 189.366 30.5437C189.366 31.5745 188.56 32.411 187.565 32.411C186.571 32.411 185.764 31.5745 185.764 30.5437C185.764 29.513 186.571 28.677 187.565 28.677Z" fill="black"/>
</svg>
